<?xml version="1.0" encoding="utf-8"?>
<!-- Generator: Adobe Illustrator 16.0.0, SVG Export Plug-In . SVG Version: 6.00 Build 0)  -->
<!DOCTYPE svg PUBLIC "-//W3C//DTD SVG 1.0//EN" "http://www.w3.org/TR/2001/REC-SVG-20010904/DTD/svg10.dtd">
<svg version="1.0" id="Capa_1" xmlns="http://www.w3.org/2000/svg" xmlns:xlink="http://www.w3.org/1999/xlink" x="0px" y="0px"
	 width="35px" height="200px" viewBox="0 0 35 200" enable-background="new 0 0 35 200" xml:space="preserve">
<g>
	<g>
		<g>
			<path fill-rule="evenodd" clip-rule="evenodd" fill="#007CAD" d="M343.963,461.688c5.822,4.072,12.483,6.009,19.094,6.009
				c10.516,0,20.871-4.952,27.356-14.23l137.585-196.835c10.561-15.112,6.877-35.91-8.224-46.47
				c-15.102-10.548-35.891-6.855-46.462,8.237L335.738,415.242C325.181,430.332,328.864,451.131,343.963,461.688z"/>
		</g>
		<g>
			<path fill-rule="evenodd" clip-rule="evenodd" fill="#007CAD" d="M95.25,467.501c5.82,4.081,12.489,6.018,19.089,6.018
				c10.526,0,20.882-4.966,27.369-14.244l145.165-202.644c10.55-15.112,6.857-35.91-8.244-46.47
				c-15.091-10.548-35.877-6.855-46.448,8.237L87.024,421.062C76.462,436.154,80.149,456.953,95.25,467.501z"/>
		</g>
		<g>
			<path fill-rule="evenodd" clip-rule="evenodd" fill="#2C354A" d="M95.25,294.586c5.82,4.072,12.48,6.026,19.089,6.026
				c10.526,0,20.882-4.98,27.369-14.25l20.779-29.73c10.557-15.112,6.864-35.91-8.227-46.47
				c-15.101-10.548-35.91-6.855-46.447,8.237l-20.79,29.729C76.462,263.229,80.157,284.04,95.25,294.586z"/>
		</g>
		<g>
			<path fill-rule="evenodd" clip-rule="evenodd" fill="#007CAD" d="M515.485,568.571h-88.581l101.298-148.184
				c10.399-15.223,6.498-35.973-8.723-46.387c-15.216-10.395-35.965-6.488-46.359,8.727L336.156,583.109
				c-0.017,0.035-0.03,0.043-0.051,0.074c-1.225,1.819-2.301,3.764-3.159,5.822c-0.48,1.144-0.758,2.352-1.096,3.526
				c-0.288,0.905-0.643,1.764-0.839,2.712c-0.45,2.18-0.655,4.388-0.665,6.61c0,0.021-0.011,0.053-0.011,0.082
				c0,0.499,0.132,0.962,0.154,1.46c0.071,1.659,0.171,3.319,0.49,4.965c0.216,1.031,0.582,1.997,0.87,2.997
				c0.327,1.075,0.574,2.157,0.983,3.193c0.427,1.022,0.992,1.945,1.504,2.902c0.499,0.953,0.939,1.923,1.524,2.825
				c0.635,0.952,1.401,1.788,2.127,2.659c0.656,0.811,1.217,1.63,1.945,2.387c1.203,1.205,2.559,2.271,3.929,3.301
				c0.368,0.257,0.646,0.594,1.001,0.841c0.041,0.022,0.063,0.031,0.082,0.052c0.265,0.183,0.552,0.295,0.818,0.481
				c1.421,0.879,2.866,1.689,4.367,2.353c0.564,0.242,1.137,0.45,1.733,0.684c1.338,0.512,2.698,0.923,4.091,1.262
				c0.574,0.142,1.144,0.264,1.737,0.39c1.985,0.355,3.97,0.602,5.974,0.602c0,0,0,0,0.021,0c0,0,0,0,0.011,0h151.786
				c18.429,0,33.365-14.928,33.365-33.353C548.851,583.5,533.914,568.571,515.485,568.571z"/>
		</g>
		<g>
			<path fill-rule="evenodd" clip-rule="evenodd" fill="#007CAD" d="M402.006,210.315c-15.03-10.67-35.852-7.144-46.512,7.908
				L236.438,386.042v13.332v131.826L198.5,585.501c-10.567,15.114-6.873,35.895,8.225,46.462c5.825,4.063,12.483,5.999,19.091,5.999
				c10.521,0,20.872-4.969,27.37-14.234l49.979-71.522v-13.208V407.303l106.749-150.479
				C420.574,241.785,417.034,220.963,402.006,210.315z"/>
		</g>
		<g>
			<path fill-rule="evenodd" clip-rule="evenodd" fill="#007CAD" d="M196.698,486.848c-15.1-10.562-35.911-6.875-46.457,8.235
				l-63.217,87.741c-10.562,15.101-6.867,35.899,8.227,46.452c5.82,4.067,12.489,6.013,19.089,6.013
				c10.526,0,20.882-4.943,27.369-14.239l63.215-87.74C215.486,518.194,211.799,497.396,196.698,486.848z"/>
		</g>
	</g>
</g>
</svg>
